<svg aria-hidden="true" style="position: absolute; width: 0; height: 0; overflow: hidden;" version="1.1" xmlns="http://www.w3.org/2000/svg" xmlns:xlink="http://www.w3.org/1999/xlink">
<defs>
<symbol id="icon-Logo-1" viewBox="0 0 57 32">
<path fill="#afb1b8" style="fill: var(--color1, #afb1b8)" d="M26.727 3.165h-0.073c-0.112-0.007-0.224-0.010-0.336-0.012v0h-0.243c-0.212 0-0.428 0.005-0.642 0.016-0.016-0.001-0.032-0.001-0.049 0-1.944 0.11-3.848 0.596-5.609 1.431l-0.231 0.111v11.809l0.54-0.183c0.474-0.163 0.978-0.309 1.5-0.445 1.411-0.362 2.861-0.555 4.317-0.574v1.551c-0.193 0.001-0.38 0.007-0.568 0.016h-0.045c-1.121 0.061-2.233 0.232-3.322 0.51-1.378 0.345-2.708 0.863-3.957 1.542v-15.145c1.298-0.757 2.695-1.325 4.151-1.688 1.278-0.33 2.593-0.5 3.913-0.504h0.228c0.273 0.007 0.538 0.019 0.788 0.038 0.658 0.046 1.31 0.15 1.95 0.311v1.527c-0.621-0.145-1.253-0.24-1.889-0.285-0.013-0.001-0.026-0.002-0.039-0.003-0.132-0.011-0.263-0.022-0.386-0.022zM29.415 4.726c0.339 0.026 0.689 0.038 1.044 0.038 1.388-0.005 2.769-0.182 4.114-0.528 1.378-0.346 2.706-0.865 3.956-1.543v14.875c-1.298 0.756-2.696 1.325-4.153 1.688-1.279 0.329-2.593 0.498-3.913 0.503-1 0.008-1.997-0.11-2.968-0.35v-14.971c0.229 0.053 0.465 0.102 0.706 0.142 0.394 0.066 0.81 0.115 1.214 0.145zM36.985 4.841l-0.54 0.182c-0.497 0.167-0.997 0.316-1.5 0.449-1.465 0.377-2.971 0.57-4.483 0.575-0.352 0-0.676-0.010-0.989-0.030l-0.43-0.028v12.148l0.37 0.033c0.343 0.030 0.696 0.045 1.052 0.045 1.191-0.005 2.377-0.159 3.531-0.457 0.95-0.238 1.874-0.57 2.759-0.991l0.231-0.111v-11.813z"></path>
<path fill="#afb1b8" style="fill: var(--color1, #afb1b8)" d="M19.060 24.113c-0.078-0.080-0.171-0.144-0.274-0.186s-0.214-0.061-0.326-0.057c-0.119-0.002-0.237 0.021-0.347 0.065-0.101 0.040-0.193 0.101-0.27 0.178s-0.135 0.17-0.174 0.271c-0.042 0.107-0.063 0.22-0.062 0.335v2.023c-0.005 0.143 0.022 0.284 0.080 0.415 0.048 0.104 0.117 0.196 0.202 0.271 0.081 0.068 0.176 0.117 0.278 0.144 0.098 0.028 0.2 0.042 0.302 0.042 0.113 0.001 0.224-0.023 0.326-0.070 0.101-0.044 0.193-0.108 0.27-0.187 0.075-0.079 0.135-0.171 0.177-0.271 0.043-0.102 0.065-0.212 0.065-0.323v-0.226h-0.529v0.18c0.002 0.062-0.009 0.123-0.031 0.18-0.017 0.043-0.043 0.082-0.077 0.114-0.033 0.026-0.070 0.046-0.111 0.058-0.036 0.012-0.073 0.018-0.111 0.019-0.047 0.006-0.095-0.002-0.139-0.021s-0.081-0.049-0.11-0.088c-0.050-0.081-0.074-0.176-0.070-0.271v-1.887c-0.003-0.105 0.019-0.208 0.065-0.302 0.027-0.043 0.066-0.077 0.112-0.098s0.097-0.030 0.147-0.024c0.046-0.002 0.091 0.008 0.132 0.028s0.077 0.049 0.104 0.086c0.059 0.078 0.090 0.173 0.088 0.271v0.175h0.524v-0.206c0.001-0.121-0.021-0.241-0.065-0.354-0.039-0.106-0.099-0.203-0.177-0.285z"></path>
<path fill="#afb1b8" style="fill: var(--color1, #afb1b8)" d="M22.202 24.090c-0.169-0.142-0.381-0.221-0.602-0.222-0.108 0-0.215 0.020-0.316 0.057-0.103 0.037-0.198 0.093-0.279 0.165-0.088 0.079-0.158 0.175-0.205 0.283-0.053 0.124-0.079 0.257-0.077 0.392v1.941c-0.004 0.137 0.023 0.272 0.077 0.397 0.048 0.104 0.118 0.197 0.205 0.271 0.081 0.075 0.176 0.133 0.279 0.171 0.101 0.037 0.208 0.056 0.316 0.057s0.215-0.020 0.316-0.057c0.105-0.038 0.202-0.096 0.286-0.171 0.084-0.076 0.152-0.168 0.2-0.271 0.054-0.125 0.081-0.261 0.077-0.397v-1.941c0.003-0.135-0.024-0.268-0.077-0.392-0.047-0.107-0.115-0.203-0.2-0.283zM21.955 26.706c0.004 0.052-0.003 0.104-0.021 0.152s-0.047 0.092-0.084 0.128c-0.070 0.059-0.158 0.091-0.249 0.091s-0.179-0.032-0.249-0.091c-0.037-0.036-0.066-0.080-0.084-0.128s-0.025-0.101-0.021-0.152v-1.941c-0.004-0.052 0.003-0.104 0.021-0.152s0.047-0.092 0.084-0.128c0.070-0.059 0.158-0.091 0.249-0.091s0.179 0.032 0.249 0.091c0.037 0.036 0.066 0.080 0.084 0.128s0.025 0.101 0.021 0.152v1.941z"></path>
<path fill="#afb1b8" style="fill: var(--color1, #afb1b8)" d="M26.329 27.573v-3.674h-0.509l-0.668 1.945h-0.009l-0.673-1.945h-0.503v3.674h0.525v-2.235h0.009l0.514 1.58h0.262l0.518-1.58h0.009v2.235h0.525z"></path>
<path fill="#afb1b8" style="fill: var(--color1, #afb1b8)" d="M29.311 24.157c-0.081-0.091-0.183-0.16-0.297-0.201-0.123-0.040-0.251-0.059-0.38-0.057h-0.78v3.674h0.523v-1.435h0.27c0.163 0.007 0.326-0.027 0.472-0.1 0.119-0.066 0.218-0.163 0.287-0.281 0.061-0.098 0.101-0.206 0.12-0.32 0.021-0.138 0.030-0.278 0.028-0.418 0.005-0.176-0.012-0.353-0.051-0.525-0.035-0.127-0.101-0.243-0.193-0.338zM29.041 25.277c-0.002 0.067-0.019 0.132-0.049 0.191-0.030 0.056-0.077 0.102-0.135 0.129-0.078 0.035-0.162 0.050-0.247 0.046h-0.239v-1.249h0.27c0.081-0.004 0.162 0.012 0.236 0.046 0.054 0.031 0.097 0.079 0.123 0.136 0.029 0.065 0.044 0.134 0.046 0.205 0 0.077 0 0.159 0 0.244s0.005 0.174 0 0.252h-0.005z"></path>
<path fill="#afb1b8" style="fill: var(--color1, #afb1b8)" d="M31.791 23.899h-0.429l-0.809 3.674h0.523l0.154-0.789h0.714l0.154 0.789h0.524l-0.83-3.674zM31.308 26.283l0.258-1.332h0.009l0.256 1.332h-0.524z"></path>
<path fill="#afb1b8" style="fill: var(--color1, #afb1b8)" d="M35.173 26.112h-0.009l-0.791-2.213h-0.503v3.674h0.523v-2.209h0.011l0.8 2.209h0.492v-3.674h-0.523v2.213z"></path>
<path fill="#afb1b8" style="fill: var(--color1, #afb1b8)" d="M38.372 23.899l-0.421 1.461h-0.011l-0.421-1.461h-0.554l0.719 2.121v1.553h0.524v-1.553l0.719-2.121h-0.554z"></path>
<path fill="#afb1b8" style="fill: var(--color1, #afb1b8)" d="M17.6 28.61h0.252v0.708h0.171v-0.708h0.251v-0.145h-0.675v0.145z"></path>
<path fill="#afb1b8" style="fill: var(--color1, #afb1b8)" d="M19.721 28.465l-0.331 0.853h0.182l0.070-0.194h0.34l0.073 0.194h0.186l-0.339-0.853h-0.182zM19.694 28.981l0.116-0.316 0.116 0.316h-0.232z"></path>
<path fill="#afb1b8" style="fill: var(--color1, #afb1b8)" d="M21.818 29.004h0.197v0.11c-0.058 0.046-0.129 0.071-0.202 0.072-0.034 0.002-0.069-0.004-0.1-0.019s-0.059-0.036-0.081-0.063c-0.045-0.065-0.068-0.143-0.063-0.222 0-0.19 0.082-0.285 0.246-0.285 0.043-0.004 0.086 0.007 0.121 0.032s0.061 0.062 0.072 0.104l0.169-0.033c-0.036-0.167-0.156-0.251-0.362-0.251-0.11-0.003-0.216 0.036-0.298 0.11-0.043 0.042-0.076 0.094-0.097 0.15s-0.030 0.117-0.025 0.178c-0.005 0.117 0.034 0.231 0.109 0.32 0.042 0.043 0.092 0.077 0.148 0.098s0.116 0.031 0.176 0.027c0.134 0.004 0.263-0.045 0.362-0.136v-0.336h-0.37v0.144z"></path>
<path fill="#afb1b8" style="fill: var(--color1, #afb1b8)" d="M23.959 28.465h-0.173v0.853h0.598v-0.145h-0.425v-0.708z"></path>
<path fill="#afb1b8" style="fill: var(--color1, #afb1b8)" d="M25.769 28.465h-0.173v0.853h0.173v-0.853z"></path>
<path fill="#afb1b8" style="fill: var(--color1, #afb1b8)" d="M27.539 29.035l-0.349-0.57h-0.167v0.853h0.161v-0.557l0.343 0.557h0.171v-0.853h-0.158v0.57z"></path>
<path fill="#afb1b8" style="fill: var(--color1, #afb1b8)" d="M29.14 28.943h0.425v-0.145h-0.425v-0.187h0.457v-0.145h-0.63v0.853h0.648v-0.145h-0.475v-0.231z"></path>
<path fill="#afb1b8" style="fill: var(--color1, #afb1b8)" d="M33.020 28.802h-0.336v-0.336h-0.171v0.853h0.171v-0.373h0.336v0.373h0.171v-0.853h-0.171v0.336z"></path>
<path fill="#afb1b8" style="fill: var(--color1, #afb1b8)" d="M34.629 28.943h0.426v-0.145h-0.426v-0.187h0.459v-0.145h-0.63v0.853h0.646v-0.145h-0.475v-0.231z"></path>
<path fill="#afb1b8" style="fill: var(--color1, #afb1b8)" d="M36.812 28.943c0.148-0.023 0.224-0.102 0.224-0.237 0.004-0.036-0.001-0.073-0.016-0.106s-0.038-0.062-0.068-0.083c-0.077-0.039-0.163-0.056-0.25-0.050h-0.362v0.853h0.171v-0.357h0.034c0.037-0.002 0.073 0.004 0.107 0.019 0.025 0.015 0.046 0.037 0.061 0.062l0.186 0.271h0.205l-0.104-0.167c-0.046-0.082-0.111-0.153-0.189-0.205zM36.64 28.825h-0.127v-0.214h0.135c0.059-0.005 0.118 0.002 0.174 0.020 0.012 0.011 0.022 0.025 0.029 0.040s0.009 0.032 0.009 0.049c-0.001 0.017-0.005 0.033-0.013 0.048s-0.019 0.027-0.032 0.037c-0.056 0.017-0.115 0.024-0.174 0.020z"></path>
<path fill="#afb1b8" style="fill: var(--color1, #afb1b8)" d="M38.458 28.943h0.425v-0.145h-0.425v-0.187h0.459v-0.145h-0.631v0.853h0.648v-0.145h-0.475v-0.231z"></path>
</symbol>
<symbol id="icon-Logo" viewBox="0 0 57 32">
<path fill="#afb1b8" style="fill: var(--color1, #afb1b8)" d="M20.267 3.733l3.738 3.538-6.938-0.004v17.166h18.133v-6.564l3.733 3.534v-17.671h-18.667zM35.036 17.455l-10.597-10.032h10.597v10.032zM31.746 21.923h-11.81v-11.545h0.835v10.764h10.975v0.782zM22.291 27.624l-0.44-0.905h-0.363l0.638 1.198v0.698h0.329v-0.698l0.638-1.198h-0.362l-0.44 0.905zM23.914 26.72h0.078l0.716 1.896h-0.344l-0.153-0.444h-0.734l-0.153 0.444h-0.342l0.714-1.896h0.219zM23.566 27.912h0.555l-0.278-0.804-0.277 0.804zM25.857 27.598c-0.014-0.018-0.028-0.036-0.041-0.053-0.049-0.064-0.086-0.126-0.113-0.186s-0.040-0.123-0.040-0.188c0-0.099 0.020-0.184 0.061-0.255s0.099-0.126 0.173-0.164c0.075-0.039 0.162-0.059 0.262-0.059 0.096 0 0.179 0.020 0.249 0.059s0.124 0.089 0.161 0.152c0.038 0.063 0.057 0.133 0.057 0.208 0 0.060-0.011 0.115-0.033 0.164s-0.052 0.095-0.090 0.135c-0.038 0.041-0.082 0.079-0.133 0.116l-0.132 0.096 0.375 0.443c0.012-0.024 0.024-0.050 0.034-0.077 0.032-0.083 0.048-0.176 0.048-0.277h0.271c0 0.092-0.009 0.179-0.027 0.262s-0.046 0.159-0.085 0.229c-0.016 0.029-0.034 0.057-0.054 0.084l0.278 0.328h-0.363l-0.11-0.13c-0.060 0.045-0.124 0.081-0.195 0.106-0.092 0.033-0.19 0.049-0.294 0.049-0.126 0-0.235-0.023-0.327-0.069s-0.163-0.109-0.214-0.19c-0.049-0.081-0.074-0.173-0.074-0.277 0-0.077 0.016-0.145 0.048-0.203s0.076-0.114 0.132-0.164c0.051-0.047 0.11-0.093 0.175-0.14zM26.013 27.789l-0.039 0.029c-0.046 0.037-0.080 0.073-0.103 0.108s-0.036 0.065-0.043 0.094c-0.007 0.029-0.010 0.054-0.010 0.076 0 0.056 0.012 0.106 0.035 0.151s0.059 0.081 0.105 0.108c0.047 0.026 0.104 0.039 0.171 0.039 0.072 0 0.142-0.016 0.21-0.048 0.034-0.017 0.066-0.036 0.097-0.060l-0.422-0.496zM26.088 27.442l0.116-0.078c0.055-0.036 0.094-0.072 0.117-0.107s0.035-0.080 0.035-0.133c0-0.045-0.017-0.087-0.052-0.125s-0.084-0.057-0.147-0.057c-0.044 0-0.082 0.010-0.112 0.031s-0.053 0.047-0.069 0.081c-0.015 0.033-0.022 0.070-0.022 0.111 0 0.039 0.010 0.079 0.030 0.121s0.047 0.084 0.082 0.129c0.007 0.009 0.014 0.018 0.022 0.028zM29.404 27.998h-0.326c-0.010 0.082-0.029 0.152-0.060 0.21s-0.073 0.099-0.131 0.129c-0.057 0.030-0.132 0.044-0.225 0.044-0.076 0-0.142-0.015-0.197-0.046s-0.1-0.073-0.135-0.129c-0.035-0.056-0.061-0.122-0.078-0.199s-0.025-0.165-0.025-0.26v-0.16c0-0.101 0.009-0.19 0.027-0.268s0.047-0.145 0.085-0.199 0.084-0.095 0.139-0.122c0.056-0.028 0.121-0.042 0.195-0.042 0.091 0 0.165 0.016 0.221 0.047s0.099 0.075 0.128 0.133c0.029 0.058 0.049 0.128 0.057 0.21h0.326c-0.013-0.127-0.049-0.239-0.107-0.337s-0.138-0.175-0.242-0.23c-0.104-0.056-0.232-0.083-0.383-0.083-0.119 0-0.226 0.021-0.322 0.063s-0.176 0.102-0.243 0.181c-0.068 0.078-0.12 0.172-0.156 0.283s-0.053 0.233-0.053 0.37v0.158c0 0.136 0.017 0.26 0.052 0.37s0.087 0.204 0.154 0.282c0.067 0.077 0.147 0.137 0.241 0.18s0.199 0.063 0.316 0.063c0.153 0 0.283-0.028 0.389-0.083s0.19-0.132 0.249-0.228c0.059-0.097 0.094-0.208 0.104-0.332zM31.213 27.72v-0.104c0-0.143-0.019-0.271-0.057-0.384s-0.091-0.21-0.16-0.29c-0.069-0.081-0.152-0.142-0.249-0.184s-0.203-0.064-0.32-0.064c-0.116 0-0.223 0.021-0.319 0.064s-0.178 0.103-0.249 0.184c-0.070 0.080-0.123 0.177-0.162 0.29s-0.057 0.241-0.057 0.384v0.104c0 0.143 0.019 0.272 0.057 0.385s0.094 0.21 0.164 0.29c0.070 0.080 0.153 0.141 0.249 0.184s0.203 0.063 0.319 0.063c0.117 0 0.224-0.021 0.32-0.063s0.179-0.104 0.247-0.184c0.069-0.080 0.123-0.177 0.16-0.29s0.056-0.242 0.056-0.385zM30.886 27.613v0.107c0 0.106-0.010 0.2-0.031 0.281s-0.049 0.151-0.089 0.207c-0.039 0.056-0.087 0.098-0.143 0.126s-0.121 0.042-0.194 0.042c-0.072 0-0.136-0.014-0.193-0.042s-0.105-0.071-0.146-0.126c-0.040-0.056-0.070-0.125-0.091-0.207s-0.031-0.175-0.031-0.281v-0.107c0-0.106 0.010-0.199 0.031-0.28s0.051-0.15 0.090-0.204c0.040-0.056 0.088-0.097 0.145-0.125s0.121-0.043 0.193-0.043 0.137 0.014 0.194 0.043c0.057 0.028 0.105 0.070 0.145 0.125s0.070 0.123 0.090 0.204c0.021 0.081 0.031 0.174 0.031 0.28z"></path>
</symbol>
</defs>
</svg>
